<?xml version="1.0" encoding="UTF-8"?>
<svg id="Layer_2" data-name="Layer 2" xmlns="http://www.w3.org/2000/svg" viewBox="0 0 288.41 350.01">
  <defs>
    <style>
      .cls-1 {
      fill: #3d3356;
      }

      .cls-2 {
      fill: #e3a75c;
      }

      .cls-3, .cls-4 {
      fill: #fff;
      }

      .cls-5 {
      fill: #008eb0;
      }

      .cls-5, .cls-4, .cls-6, .cls-7 {
      stroke: #3d3356;
      }

      .cls-5, .cls-6, .cls-7 {
      stroke-linecap: round;
      stroke-linejoin: round;
      stroke-width: 3px;
      }

      .cls-8, .cls-7 {
      fill: #5085b6;
      }

      .cls-9 {
      fill: #967448;
      }

      .cls-10 {
      fill: #d4af37;
      }

      .cls-4 {
      stroke-miterlimit: 10;
      stroke-width: 2px;
      }

      .cls-6 {
      fill: none;
      }
    </style>
  </defs>
  <g id="Layer_1-2" data-name="Layer 1">
    <g>
      <path class="cls-2"
        d="M161.78,283.21c-2.59,0-5.27-.67-8.1-1.38-2.94-.73-5.97-1.49-9.03-1.49s-6.09.76-9.03,1.49c-2.84.71-5.51,1.38-8.1,1.38h0c-.59,0-1.17-.04-1.71-.11-3.2-.43-6.19-2.1-9.35-3.87-2.59-1.45-5.26-2.95-8.11-3.73-2.91-.79-6.02-.87-9.02-.94-3.59-.08-6.97-.16-9.88-1.39-2.95-1.25-5.37-3.64-7.94-6.17-2.12-2.1-4.32-4.26-6.89-5.78-2.59-1.53-5.56-2.41-8.43-3.27-3.44-1.02-6.69-1.99-9.19-3.95-2.5-1.96-4.21-4.89-6.02-7.99-1.51-2.59-3.08-5.27-5.18-7.41-2.1-2.14-4.74-3.76-7.29-5.33-3.06-1.88-5.96-3.65-7.87-6.2-1.9-2.52-2.8-5.79-3.75-9.24-.8-2.9-1.63-5.9-3.12-8.53-1.47-2.6-3.6-4.83-5.66-6.99-2.49-2.61-4.83-5.07-6.04-8.04-1.18-2.91-1.21-6.28-1.25-9.86-.03-3.02-.06-6.14-.83-9.08-.75-2.87-2.23-5.57-3.67-8.18-1.74-3.17-3.38-6.15-3.79-9.35-.39-3.08.43-6.33,1.29-9.78.74-2.95,1.51-6,1.51-9.07s-.78-6.07-1.53-8.98c-.87-3.35-1.68-6.51-1.31-9.48.4-3.16,2.04-6.08,3.78-9.19,1.42-2.54,2.89-5.16,3.63-7.95.77-2.89.81-5.95.84-8.92.04-3.5.08-6.81,1.27-9.63,1.22-2.91,3.59-5.28,6.1-7.79,2.06-2.06,4.19-4.19,5.67-6.68,1.51-2.53,2.38-5.45,3.22-8.26,1.01-3.38,1.96-6.57,3.9-8.99,1.95-2.43,4.86-4.05,7.95-5.77,2.56-1.43,5.22-2.91,7.35-4.92,2.13-2.01,3.76-4.58,5.33-7.06,1.89-2.98,3.67-5.8,6.21-7.62,2.5-1.79,5.71-2.58,9.12-3.41,2.88-.7,5.86-1.43,8.48-2.83,2.58-1.38,4.82-3.44,6.99-5.43,2.6-2.39,5.05-4.64,7.98-5.75,2.3-.87,4.88-.99,7.34-.99.75,0,1.51.01,2.26.02.78.01,1.55.03,2.32.03,2.01,0,4.39-.08,6.7-.63,2.85-.69,5.54-2.14,8.13-3.54,3.1-1.67,6.02-3.24,9.14-3.61.46-.05.94-.08,1.44-.08,2.56,0,5.22.7,8.03,1.44,2.92.77,5.95,1.57,9,1.57s6.08-.8,9-1.57c2.81-.74,5.47-1.44,8.03-1.44.5,0,.98.03,1.44.08,3.11.37,6.04,1.94,9.14,3.61,2.6,1.4,5.28,2.84,8.13,3.54,2.31.56,4.68.63,6.69.63.77,0,1.55-.01,2.32-.03.76-.01,1.51-.02,2.27-.02,2.45,0,5.04.12,7.34.99,2.93,1.11,5.38,3.36,7.97,5.75,2.17,1.99,4.41,4.05,6.99,5.43,2.63,1.4,5.6,2.13,8.49,2.83,3.4.83,6.62,1.62,9.12,3.41,2.53,1.82,4.32,4.64,6.21,7.62,1.57,2.48,3.2,5.05,5.33,7.06,2.14,2.02,4.79,3.5,7.35,4.92,3.08,1.72,6,3.34,7.95,5.77,1.94,2.42,2.89,5.61,3.9,8.99.84,2.82,1.71,5.73,3.22,8.26,1.49,2.49,3.61,4.62,5.67,6.68,2.51,2.51,4.88,4.89,6.1,7.79,1.18,2.82,1.22,6.13,1.27,9.63.04,2.96.07,6.03.84,8.92.74,2.79,2.21,5.41,3.63,7.95,1.74,3.1,3.38,6.03,3.78,9.19.38,2.97-.44,6.13-1.3,9.48-.75,2.92-1.53,5.93-1.53,8.98s.77,6.12,1.51,9.07c.87,3.44,1.69,6.7,1.29,9.78-.41,3.2-2.05,6.19-3.79,9.35-1.44,2.61-2.92,5.31-3.67,8.18-.77,2.94-.8,6.06-.83,9.08-.04,3.57-.07,6.95-1.25,9.86-1.2,2.97-3.55,5.43-6.04,8.04-2.06,2.16-4.2,4.4-5.67,6.99-1.49,2.63-2.32,5.63-3.12,8.53-.95,3.45-1.85,6.71-3.75,9.24-1.92,2.54-4.81,4.32-7.87,6.2-2.55,1.57-5.2,3.19-7.29,5.33-2.1,2.15-3.67,4.82-5.18,7.41-1.81,3.1-3.53,6.03-6.02,7.99-2.49,1.96-5.75,2.92-9.19,3.95-2.88.85-5.85,1.74-8.43,3.27-2.57,1.52-4.76,3.68-6.88,5.78-2.57,2.53-4.99,4.93-7.94,6.18-2.9,1.23-6.29,1.31-9.88,1.39-3,.07-6.11.14-9.02.94-2.85.78-5.52,2.28-8.11,3.73-3.16,1.77-6.14,3.45-9.35,3.87-.54.07-1.12.11-1.71.11Z" />
      <path class="cls-1"
        d="M127.62,3c2.37,0,4.93.68,7.64,1.39,3.02.8,6.14,1.62,9.39,1.62s6.37-.82,9.38-1.62c2.71-.72,5.28-1.39,7.65-1.39.44,0,.86.02,1.27.07,2.83.33,5.63,1.84,8.6,3.44,2.68,1.44,5.45,2.94,8.49,3.67,2.46.6,4.94.68,7.05.68.78,0,1.57-.01,2.35-.03.75-.01,1.5-.02,2.24-.02,2.31,0,4.73.11,6.8.89,2.66,1.01,5,3.17,7.49,5.45,2.23,2.05,4.55,4.18,7.3,5.65,2.79,1.49,5.86,2.24,8.84,2.97,3.26.8,6.34,1.55,8.6,3.17,2.3,1.65,4.01,4.35,5.81,7.2,1.62,2.56,3.29,5.2,5.56,7.35,2.27,2.15,5.01,3.67,7.65,5.14,2.95,1.65,5.74,3.2,7.51,5.4,1.76,2.19,2.67,5.24,3.63,8.48.87,2.9,1.76,5.91,3.37,8.6,1.58,2.65,3.78,4.85,5.9,6.98,2.4,2.41,4.67,4.68,5.78,7.31,1.07,2.55,1.11,5.71,1.15,9.07.04,3.06.08,6.22.89,9.28.79,2.97,2.31,5.68,3.77,8.29,1.66,2.97,3.24,5.78,3.6,8.64.34,2.69-.44,5.71-1.27,8.92-.78,3.01-1.58,6.12-1.58,9.36s.79,6.4,1.56,9.44c.83,3.3,1.62,6.42,1.26,9.22-.37,2.92-1.95,5.78-3.62,8.82-1.48,2.69-3.01,5.47-3.81,8.52-.82,3.12-.85,6.33-.88,9.44-.04,3.43-.07,6.66-1.14,9.31-1.1,2.7-3.35,5.06-5.73,7.57-2.13,2.23-4.32,4.53-5.88,7.29-1.58,2.79-2.43,5.88-3.26,8.87-.91,3.31-1.78,6.44-3.51,8.74-1.74,2.32-4.52,4.02-7.46,5.82-2.63,1.61-5.35,3.28-7.58,5.56-2.23,2.28-3.84,5.04-5.4,7.71-1.74,2.97-3.38,5.78-5.65,7.57-2.27,1.78-5.39,2.71-8.69,3.69-2.96.88-6.02,1.79-8.77,3.41-2.72,1.61-4.99,3.84-7.18,6-2.46,2.43-4.79,4.73-7.47,5.86-2.64,1.12-5.89,1.19-9.33,1.27-3.09.07-6.29.15-9.38.99-3.03.83-5.78,2.37-8.45,3.87-3.03,1.7-5.89,3.31-8.81,3.69-.48.06-.99.1-1.52.1-2.4,0-5-.65-7.74-1.33-3.02-.75-6.15-1.53-9.39-1.53s-6.37.78-9.39,1.53c-2.74.68-5.34,1.33-7.74,1.33-.53,0-1.04-.03-1.52-.1-2.92-.39-5.78-1.99-8.81-3.69-2.67-1.49-5.42-3.04-8.45-3.87-3.09-.84-6.29-.92-9.38-.99-3.44-.08-6.69-.15-9.33-1.27-2.68-1.14-5.01-3.43-7.47-5.86-2.19-2.16-4.45-4.39-7.17-6-2.75-1.62-5.81-2.53-8.77-3.41-3.3-.98-6.42-1.91-8.69-3.69-2.27-1.78-3.92-4.59-5.65-7.57-1.56-2.67-3.17-5.43-5.4-7.71-2.23-2.27-4.95-3.94-7.58-5.56-2.94-1.8-5.72-3.51-7.46-5.82-1.73-2.3-2.59-5.42-3.51-8.74-.83-2.99-1.68-6.08-3.26-8.87-1.56-2.76-3.76-5.06-5.88-7.29-2.38-2.5-4.64-4.86-5.73-7.57-1.07-2.64-1.11-5.88-1.14-9.31-.03-3.11-.07-6.33-.88-9.44-.8-3.05-2.33-5.83-3.81-8.52-1.67-3.04-3.25-5.9-3.62-8.82-.36-2.8.43-5.92,1.26-9.22.77-3.04,1.56-6.18,1.56-9.44s-.8-6.35-1.58-9.36c-.83-3.21-1.61-6.23-1.27-8.92.37-2.87,1.94-5.67,3.6-8.64,1.47-2.62,2.98-5.32,3.77-8.29.82-3.07.86-6.23.89-9.28.04-3.35.08-6.52,1.15-9.07,1.11-2.63,3.38-4.91,5.78-7.31,2.12-2.13,4.32-4.32,5.9-6.98,1.6-2.69,2.5-5.7,3.37-8.6.97-3.23,1.88-6.29,3.63-8.48,1.76-2.2,4.55-3.75,7.51-5.4,2.65-1.47,5.38-3,7.65-5.14,2.27-2.14,3.94-4.79,5.56-7.35,1.81-2.86,3.52-5.55,5.81-7.2,2.26-1.62,5.34-2.37,8.6-3.17,2.97-.73,6.04-1.48,8.84-2.97,2.75-1.47,5.06-3.59,7.3-5.65,2.49-2.29,4.84-4.44,7.49-5.45,2.07-.78,4.49-.89,6.81-.89.74,0,1.49.01,2.24.02.78.01,1.57.03,2.35.03,2.1,0,4.58-.08,7.05-.68,3.04-.74,5.81-2.23,8.49-3.67,2.97-1.6,5.77-3.11,8.6-3.44.4-.05.83-.07,1.27-.07h0M127.62,0c-.54,0-1.08.03-1.61.09-6.18.73-11.54,5.74-17.45,7.18-2.03.49-4.17.59-6.34.59-1.53,0-3.07-.05-4.59-.05-2.75,0-5.43.16-7.87,1.09-5.8,2.2-9.75,8.38-15.14,11.26-5.46,2.91-12.8,2.78-17.77,6.34-5.01,3.6-7.23,10.59-11.69,14.81-4.47,4.23-11.58,6.04-15.44,10.84-3.84,4.78-4.08,12.11-7.24,17.42-3.13,5.25-9.47,8.94-11.87,14.66-2.36,5.61-.57,12.72-2.17,18.74-1.56,5.85-6.66,11.13-7.45,17.33-.76,5.99,2.83,12.38,2.83,18.66s-3.58,12.89-2.79,19.04c.8,6.29,5.92,11.7,7.5,17.72,1.6,6.12-.2,13.34,2.15,19.12,2.37,5.85,8.71,9.77,11.79,15.21,3.11,5.48,3.22,12.93,6.98,17.93,3.78,5.03,10.91,7.19,15.29,11.67,4.39,4.49,6.41,11.66,11.35,15.54,4.93,3.87,12.37,4.13,17.79,7.33,5.39,3.18,9.2,9.58,15,12.04,5.75,2.43,12.99.73,19.09,2.39,6,1.64,11.37,6.8,17.66,7.64.63.08,1.27.12,1.91.12,5.58,0,11.42-2.86,17.13-2.86s11.55,2.86,17.13,2.86c.64,0,1.28-.04,1.91-.12,6.29-.84,11.65-6,17.66-7.64,6.1-1.67,13.34.04,19.09-2.39,5.8-2.46,9.62-8.86,15-12.04,5.41-3.2,12.86-3.46,17.79-7.33,4.94-3.88,6.96-11.05,11.35-15.54,4.39-4.48,11.51-6.65,15.29-11.67,3.76-5,3.87-12.45,6.98-17.93,3.08-5.44,9.41-9.36,11.79-15.21,2.34-5.78.54-13,2.15-19.12,1.57-6.01,6.69-11.42,7.5-17.72.78-6.15-2.79-12.67-2.79-19.04s3.59-12.67,2.83-18.66c-.79-6.2-5.9-11.47-7.45-17.33-1.6-6.02.18-13.13-2.17-18.74-2.4-5.72-8.74-9.41-11.87-14.66-3.16-5.31-3.4-12.64-7.24-17.42-3.85-4.8-10.96-6.62-15.44-10.84-4.46-4.21-6.68-11.21-11.69-14.81-4.97-3.57-12.31-3.43-17.77-6.34-5.39-2.88-9.34-9.06-15.14-11.26-2.44-.92-5.12-1.09-7.87-1.09-1.52,0-3.06.05-4.59.05-2.17,0-4.31-.1-6.34-.59-5.91-1.43-11.27-6.45-17.45-7.17C162.75.03,162.22,0,161.67,0c-5.55,0-11.35,3.01-17.03,3.01S133.16,0,127.62,0h0Z" />
    </g>
    <g>
      <g>
        <g>
          <path class="cls-8"
            d="M31.07,261.64c-3.85,0-7.93-1.92-12.11-5.7C2.71,241.25,1.09,216.8,1.57,203.54c.21-5.89.83-13.54,3.76-20.45,3.12-7.35,9.84-14.79,16.66-14.79,1.56,0,3.11.39,4.6,1.17,5.9,3.05,12,12.91,14.27,18.6,6.2,15.57,10.98,47.25,3.4,63.81-2.17,4.75-7,9.61-12.9,9.76h-.3Z" />
          <path class="cls-1"
            d="M22,169.8c1.32,0,2.64.34,3.91,1,4.87,2.52,10.95,11.26,13.56,17.83,7.06,17.74,10.21,47.82,3.43,62.63-1.98,4.32-6.32,8.75-11.57,8.89-.09,0-.18,0-.26,0-3.47,0-7.21-1.79-11.11-5.31-15.79-14.28-17.36-38.23-16.89-51.23.21-5.76.81-13.23,3.65-19.92,2.85-6.73,9.18-13.88,15.28-13.88M22,166.8c-7.96,0-15.04,8.62-18.04,15.71-2.79,6.59-3.62,13.84-3.88,20.98-.7,19.43,3.46,40.52,17.88,53.56,3.66,3.31,8.2,6.09,13.12,6.09.11,0,.23,0,.34,0,6.24-.16,11.63-4.96,14.22-10.64,7.54-16.49,3.34-48.14-3.37-64.99-2.51-6.31-8.87-16.22-14.97-19.38-1.78-.92-3.56-1.33-5.29-1.33h0Z" />
        </g>
        <path class="cls-5"
          d="M33.67,227.71c.65-5.75,1.19-12.01-1.89-16.91-2.47-3.92-7.18-6.31-11.8-5.99-1.71.12-3.53.68-4.52,2.08-.65.92-.85,2.08-.98,3.2-.81,6.99.43,14.22,3.54,20.54" />
        <path class="cls-6" d="M40.81,231.05c-7.66-6.61-21-4.78-26.59,3.65" />
      </g>
      <g>
        <path class="cls-10"
          d="M18.09,271.63c-3.26,0-6.37-1.36-8.77-3.84-2.79-2.88-4.31-6.97-4.17-11.22.24-7.48,5.66-13.61,12.33-13.96.2-.01.41-.02.61-.02,1.54,0,3.06.31,4.51.92.68.29,1.15,1.03,1.17,1.84.05,1.87-.06,2.82-.75,4.46-.15.36-.62.85-.83.94-1.14-.84-2.47-1.29-3.85-1.29-.49,0-.99.06-1.48.17-2.7.62-4.85,3.05-5.37,6.04-.43,2.5.21,4.98,1.75,6.81,1.32,1.56,3.18,2.46,5.11,2.46,3.26,0,5.43-1.4,6.31-4.07,1.43,1.03,3.09,1.46,4.7,1.88.2.05.4.1.6.16-2.06,5.32-6.67,8.72-11.86,8.72Z" />
        <path class="cls-1"
          d="M18.09,243.1c1.47,0,2.93.3,4.31.88.49.21.85.78.86,1.39.05,1.82-.05,2.68-.71,4.25-.06.14-.23.37-.38.52-1.16-.77-2.48-1.17-3.84-1.17-.53,0-1.06.06-1.59.18-2.89.66-5.2,3.25-5.75,6.45-.46,2.64.22,5.27,1.86,7.22,1.41,1.68,3.41,2.64,5.49,2.64,3.2,0,5.48-1.34,6.56-3.81,1.36.83,2.87,1.22,4.33,1.6.02,0,.03,0,.05.01-2.08,4.82-6.37,7.88-11.18,7.88-3.12,0-6.11-1.31-8.41-3.68-2.69-2.78-4.16-6.74-4.03-10.85.23-7.22,5.44-13.14,11.85-13.48.2-.01.39-.02.58-.02M18.09,242.1c-.21,0-.42,0-.64.02-6.9.36-12.55,6.74-12.8,14.44-.28,8.55,5.85,15.57,13.44,15.57,5.7,0,10.56-3.97,12.52-9.56-2.21-.62-4.47-.98-6.24-2.56-.71,3.14-3.01,4.44-6.04,4.44-4,0-7.16-4.05-6.36-8.68.48-2.8,2.49-5.07,4.99-5.64.46-.11.92-.16,1.37-.16,1.34,0,2.58.46,3.61,1.23.06.05.13.07.21.07.46,0,1.13-.79,1.33-1.25.71-1.68.84-2.69.79-4.67-.03-1.02-.62-1.93-1.48-2.29-1.46-.61-3.04-.96-4.7-.96h0Z" />
      </g>
      <g>
        <path class="cls-1"
          d="M17.9,251.69c-.18-.22-.36-.45-.55-.67.06-.05.12-.09.18-.13.38-.28.49-.37.87-.38.16.07.4.17.64.28-.4.27-.78.57-1.14.9Z" />
        <path class="cls-1"
          d="M18.5,249.01c-1.76,0-1.71,1.03-3.51,1.52-.09.02-.03.16.03.23,1.01.97,1.99,2.15,2.73,3.36,1.06-1.52,2.64-2.64,4.38-3.11-.25-.34-.59-.77-.98-.91-.18-.06-2.32-1.09-2.51-1.09-.05,0-.09,0-.14,0h0Z" />
      </g>
      <path class="cls-1"
        d="M25.24,261.36c-.16,0-.31.03-.42.11-.21.15-.29.51-.41.73-.15.29-.32.57-.51.85.05-.04.12-.07.19-.07.03,0,.07,0,.1.02.13.04.23.15.32.26,1.09,1.23,2.18,2.46,3.27,3.68.16-.55.44-1.06.81-1.5.25-.29.54-.55.76-.86.22-.31.36-.66.51-1.01.12-.3.24-.6.29-.91-.73-.08-1.45-.15-2.18-.26-.32-.05-.64-.1-.93-.25-.22-.12-.4-.29-.62-.42-.26-.16-.77-.36-1.19-.36h0ZM23.9,263.05s-.05.05-.06.08c.02-.03.04-.06.06-.08h0Z" />
    </g>
    <g>
      <g>
        <path class="cls-8"
          d="M254.28,260.63c-5.9-.16-10.73-5.02-12.9-9.76-7.58-16.56-2.8-48.24,3.4-63.81,2.27-5.7,8.37-15.55,14.27-18.6,1.49-.77,3.04-1.17,4.6-1.17,6.82,0,13.54,7.44,16.66,14.79,2.93,6.92,3.55,14.56,3.76,20.45.48,13.26-1.14,37.7-17.38,52.4-4.18,3.78-8.26,5.7-12.11,5.7h-.3Z" />
        <path class="cls-1"
          d="M263.66,165.8v3c6.1,0,12.43,7.15,15.28,13.88,2.84,6.69,3.44,14.16,3.65,19.92.47,13-1.1,36.94-16.89,51.23-3.9,3.53-7.63,5.31-11.11,5.31-.09,0-.18,0-.26,0-5.25-.14-9.6-4.56-11.57-8.89-6.78-14.81-3.63-44.89,3.43-62.63,2.62-6.57,8.69-15.3,13.56-17.83,1.28-.66,2.59-1,3.92-1v-3M263.65,165.8c-1.73,0-3.51.41-5.29,1.33-6.1,3.16-12.46,13.07-14.97,19.38-6.71,16.85-10.92,48.5-3.37,64.99,2.6,5.67,7.99,10.47,14.22,10.64.11,0,.23,0,.34,0,4.91,0,9.46-2.78,13.12-6.09,14.42-13.04,18.58-34.13,17.88-53.56-.26-7.15-1.09-14.4-3.88-20.98-3-7.09-10.08-15.71-18.04-15.71h0Z" />
      </g>
      <path class="cls-5"
        d="M251.98,226.71c-.65-5.75-1.19-12.01,1.89-16.91,2.47-3.92,7.18-6.31,11.8-5.99,1.71.12,3.53.68,4.52,2.08.65.92.85,2.08.98,3.2.81,6.99-.43,14.22-3.54,20.54" />
      <path class="cls-7" d="M244.84,230.05c7.66-6.61,21-4.78,26.59,3.65" />
      <g>
        <path class="cls-10"
          d="M264.71,270.57c-5.19,0-9.79-3.4-11.85-8.7.78-.15,1.85-.25,2.89-.34,1.42-.13,2.38-.23,2.98-.4,1.26,1.83,3.19,2.76,5.74,2.76,1.93,0,3.79-.9,5.11-2.46,1.54-1.83,2.18-4.31,1.75-6.81-.52-3-2.68-5.42-5.37-6.04-.49-.11-.99-.17-1.48-.17-1.38,0-2.7.44-3.85,1.29-.22-.08-.68-.57-.83-.94-.69-1.64-.8-2.59-.75-4.46.02-.82.49-1.56,1.17-1.84,1.45-.61,2.97-.92,4.51-.92.2,0,.41,0,.61.02,6.67.35,12.08,6.48,12.33,13.96.14,4.25-1.38,8.34-4.17,11.22-2.4,2.47-5.51,3.84-8.77,3.84Z" />
        <path class="cls-1"
          d="M264.71,242.03c.19,0,.39,0,.58.02,6.41.34,11.62,6.26,11.85,13.48.13,4.12-1.34,8.07-4.03,10.85-2.3,2.38-5.29,3.68-8.41,3.68-4.79,0-9.06-3.03-11.15-7.81.68-.09,1.49-.17,2.24-.24,1.22-.11,2.09-.2,2.72-.33,1.35,1.79,3.35,2.69,5.95,2.69,2.08,0,4.08-.96,5.49-2.64,1.64-1.94,2.31-4.57,1.86-7.22-.55-3.19-2.86-5.78-5.75-6.45-.53-.12-1.06-.18-1.59-.18-1.36,0-2.68.4-3.84,1.17-.15-.15-.32-.37-.38-.52-.66-1.56-.76-2.43-.71-4.25.02-.61.37-1.19.86-1.39,1.39-.58,2.84-.88,4.31-.88M264.71,241.03c-1.66,0-3.24.34-4.7.96-.85.36-1.45,1.27-1.48,2.29-.05,1.98.08,2.99.79,4.67.2.46.86,1.25,1.33,1.25.08,0,.15-.02.21-.07,1.03-.78,2.27-1.23,3.61-1.23.45,0,.9.05,1.37.16,2.5.58,4.51,2.84,4.99,5.64.8,4.63-2.36,8.68-6.36,8.68-2.77,0-4.5-1.15-5.54-2.87-.75.48-4.99.5-6.73.99,1.96,5.59,6.82,9.56,12.52,9.56,7.59,0,13.71-7.02,13.44-15.57-.25-7.71-5.9-14.08-12.8-14.44-.21-.01-.43-.02-.64-.02h0ZM258.65,260.01c.09.17.18.34.28.5.2-.13.15-.29-.28-.5h0Z" />
      </g>
      <g>
        <path class="cls-1"
          d="M267.88,251.52c-.46-.46-.96-.83-1.37-1.13.25.04.5.11.7.21.29.15.57.4.83.69-.05.07-.1.15-.15.22Z" />
        <path class="cls-1"
          d="M263.34,248.74c-.46,0-2.06.15-2.54.54-.84.68-.51.83.09.83.52,0,1.25-.12,1.61-.12.06,0,.11,0,.14.01.88.18,2.04.94,2.77,1.45,1.04.73,2.15,1.58,2.42,2.82.67-1.02,1.36-2.03,2.05-3.04-.57-.76-1.17-1.55-2.02-1.97-.61-.31-1.3-.4-1.98-.45-.84-.06-1.69-.07-2.53-.07,0,0,0,0-.01,0h0Z" />
      </g>
      <path class="cls-1"
        d="M258.37,264.07h0,0M258.31,261.07c-.07,0-.13,0-.2,0-1.73.13-3.44.35-5.15.67.47,1.18.98,2.34,1.53,3.48,1.14-.69,2.26-1.41,3.37-2.14.54-.35,2.31-1.56.67-1.99-.07-.02-.15-.03-.23-.03h0Z" />
    </g>
    <path class="cls-9"
      d="M29.64,146.01l22.44-12,5.57-37c-9.67,1.96-19.06,9.41-22.47,18.67-4.53,12.33-4.53,19.33-5.53,30.33Z" />
    <path class="cls-9"
      d="M259.91,145.61l-22.44-12-5.57-37c9.67,1.96,19.06,9.41,22.47,18.67,4.53,12.33,4.53,19.33,5.53,30.33Z" />
    <g>
      <path class="cls-8"
        d="M144.65,340.51c-34.09,0-76.54-34.89-98.75-81.15-15.76-32.84-15.76-69.86-15.75-96.89v-1.46c0-5.17.36-10.41,1.06-15.58l19.84-10.63c.42-.22.7-.63.77-1.1l5.52-36.04c3.15-.78,6.72-1.73,10.48-2.73,20.55-5.46,48.69-12.93,77.32-12.93s56.77,7.47,77.32,12.92c3.88,1.03,7.57,2.01,10.8,2.81l5.51,35.97c.07.48.37.89.8,1.11l18.34,9.36c.82,5.55,1.23,11.21,1.23,16.83v1.46c0,27.03.01,64.05-15.75,96.89-22.21,46.26-64.66,81.15-98.75,81.15Z" />
      <path class="cls-1"
        d="M145.15,83.51c28.44,0,56.47,7.44,76.93,12.87,3.51.93,6.85,1.82,9.85,2.57l5.36,34.98c.15.95.74,1.78,1.6,2.22l17.65,9.01c.73,5.23,1.1,10.55,1.1,15.85v1.46c0,26.89.01,63.71-15.6,96.24-10.37,21.6-25.86,41.71-43.61,56.62-18.19,15.27-37.29,23.68-53.79,23.68s-35.6-8.41-53.79-23.68c-17.75-14.9-33.24-35.01-43.61-56.61-15.61-32.53-15.61-69.35-15.6-96.24v-1.46c0-4.85.32-9.76.95-14.62l19.17-10.27c.83-.45,1.41-1.26,1.55-2.19l5.37-35.06c2.92-.74,6.15-1.59,9.53-2.49,20.47-5.43,48.5-12.88,76.94-12.88M145.15,80.51c-34.9,0-69.79,11.21-89.13,15.94l-5.67,37.03-20.52,10.99c-.77,5.4-1.18,10.92-1.18,16.54,0,27.69-.3,65.27,15.9,99,21.27,44.31,63.73,82,100.1,82s78.83-37.69,100.1-82c16.19-33.74,15.9-71.31,15.9-99,0-6.06-.47-12.01-1.36-17.82l-19.03-9.71-5.66-36.96c-19.27-4.68-54.35-16.01-89.45-16.01h0Z" />
    </g>
    <g>
      <path class="cls-2"
        d="M145.65,348.51c-36.24,0-77.55-31.26-98.23-74.33-10.17-21.18-13.62-43.47-14.91-62.49,9.25,12.28,46.51,59.63,71.41,59.62,3.35,0,6.39-.85,9.03-2.54,8.98-5.72,19.18-8.62,30.3-8.62,20.28,0,37.2,9.73,38.56,10.54,2.36,1.95,5.17,2.94,8.36,2.94h0c21.57,0,56.43-46.22,66.77-60.63-.88,21.31-2.91,38.95-13.67,61.35-10.13,21.1-25.54,40.13-43.39,53.57-17.63,13.27-36.9,20.58-54.26,20.58Z" />
      <path class="cls-1"
        d="M34.39,216.58c4.7,6.02,12.22,15.25,20.88,24.4,19.99,21.13,36.36,31.84,48.65,31.84,3.64,0,6.95-.93,9.84-2.77,8.74-5.56,18.67-8.38,29.5-8.38,19.52,0,35.89,9.21,37.7,10.27,2.62,2.12,5.72,3.2,9.23,3.2,11.06,0,26.43-11.13,45.67-33.08,7.83-8.93,14.76-17.92,19.37-24.15-1.01,18.98-3.5,35.42-13.29,55.82-10.03,20.89-25.28,39.72-42.94,53.02-17.37,13.08-36.32,20.28-53.36,20.28-35.7,0-76.44-30.9-96.88-73.48-9.19-19.14-12.84-39.24-14.38-56.95M30.4,199.18c.73,23.61,3.68,50.68,15.66,75.65,21.27,44.31,63.21,75.18,99.58,75.18s77.73-30.69,99-75c11.78-24.55,13.21-43.67,14-67,0,0-43.96,64.12-68.46,64.12-2.78,0-5.31-.83-7.5-2.66,0,0-17.68-10.81-39.43-10.81-9.95,0-20.75,2.26-31.11,8.85-2.49,1.59-5.26,2.3-8.23,2.3-27.57,0-72.27-61.8-72.27-61.8l-1.24-8.83h0ZM258.65,208.01h0,0Z" />
    </g>
    <path class="cls-6"
      d="M133.65,227.94c4.87-2.64,10.16-4.54,15.63-5.61,1.2-.23,2.43-.43,3.64-.26,1.25.18,2.42.74,3.45,1.45,4.39,3.05,6.14,8.79,5.44,13.97-.7,5.18-3.47,9.89-6.66,14.11" />
    <path class="cls-6" d="M148.81,222.05c.3-2.87.6-5.73.91-8.6" />
    <g>
      <path class="cls-1"
        d="M115.19,146.2c-4.95,0-8.72-.58-11.86-1.84-.6-.24-1.19-.51-1.77-.77-.93-.42-1.89-.86-2.94-1.21-1.97-.65-4.08-.91-5.69-1.06-1.03-.1-2.16-.14-3.38-.14-7.62,0-17.67,1.9-24.58,3.93,2.22-4.19,8.98-9.14,14.62-11.21,6.2-2.28,13.43-2.65,20.3-2.84,1.15-.03,2.25-.05,3.31-.05,8.52,0,14.32,1.09,22.17,4.16,3.33,1.32,3.84,6.7,3.85,9.8-2.11.69-4.59.84-6.81.96-2.45.14-4.85.27-7.22.27Z" />
      <path class="cls-1"
        d="M103.2,132.51c8.31,0,13.96,1.06,21.61,4.05,1.69.67,2.73,3.33,2.89,7.27-1.7.39-3.62.5-5.38.6-2.43.14-4.8.27-7.13.27-4.76,0-8.35-.55-11.3-1.73-.56-.22-1.12-.48-1.71-.75-.97-.44-1.97-.9-3.09-1.27-2.11-.7-4.33-.97-6.02-1.13-1.07-.1-2.25-.15-3.52-.15-6.27,0-14.14,1.26-20.64,2.83,2.95-2.9,7.44-5.83,11.19-7.21,5.99-2.2,13.08-2.56,19.82-2.74,1.18-.03,2.25-.05,3.27-.05M103.2,129.51c-1.08,0-2.19.02-3.36.05-7.08.19-14.35.57-20.78,2.93s-16.03,9.28-16.34,14.91c6.82-2.35,18.42-4.72,26.82-4.72,1.15,0,2.23.04,3.24.14,1.83.17,3.66.43,5.35.99,1.61.53,3.06,1.33,4.62,1.95,3.83,1.53,8.09,1.94,12.42,1.94,2.44,0,4.9-.13,7.31-.27,2.82-.16,5.73-.35,8.21-1.42.14-4.29-.5-10.53-4.79-12.23-8.22-3.22-14.25-4.26-22.71-4.26h0Z" />
    </g>
    <g>
      <path class="cls-1"
        d="M181.02,144.88c-2.38,0-4.77-.12-7.22-.25-2.22-.12-4.69-.26-6.81-.91,0-3.25.61-7.89,3.83-9.09,7.85-2.9,13.66-3.93,22.19-3.93,1.06,0,2.17.02,3.32.05,6.88.18,14.11.53,20.32,2.68,5.51,1.91,12.17,6.55,14.49,10.4-6.91-1.91-16.9-3.69-24.48-3.69-1.21,0-2.34.05-3.37.14-1.61.14-3.71.38-5.67,1-1.04.33-2,.74-2.93,1.14-.58.25-1.17.51-1.77.73-3.15,1.19-6.92,1.74-11.89,1.74Z" />
      <path class="cls-1"
        d="M193,129.19v3h0c1.03,0,2.1.01,3.28.04,6.76.17,13.86.52,19.87,2.6,3.82,1.33,7.93,3.87,10.76,6.39-6.42-1.45-14.12-2.59-20.26-2.59-1.25,0-2.43.05-3.5.14-1.68.15-3.89.4-5.99,1.06-1.12.35-2.11.78-3.08,1.2-.59.26-1.15.5-1.71.71-2.97,1.12-6.58,1.64-11.36,1.64-2.34,0-4.71-.12-7.14-.25-1.74-.1-3.65-.2-5.35-.56.14-2.42.71-5.75,2.81-6.53,7.67-2.84,13.34-3.84,21.67-3.84v-3M193,129.19c-8.46,0-14.49.99-22.71,4.03-4.28,1.61-4.92,7.5-4.79,11.56,2.48,1.01,5.39,1.19,8.21,1.34,2.41.13,4.87.26,7.31.26,4.32,0,8.59-.39,12.42-1.84,1.56-.59,3.01-1.34,4.62-1.85,1.7-.53,3.53-.78,5.35-.94,1.01-.09,2.09-.13,3.24-.13,8.4,0,20,2.24,26.82,4.46-.31-5.32-9.91-11.85-16.34-14.09-6.43-2.23-13.7-2.59-20.78-2.77-1.16-.03-2.28-.05-3.36-.05h0Z" />
    </g>

    <!-- OLHO ESQUERDO -->
    <g>
      <path class="cls-3"
        d="M98.65,214.21c-15.55,0-28.2-12.65-28.2-28.2s12.65-28.2,28.2-28.2,28.2,12.65,28.2,28.2-12.65,28.2-28.2,28.2Z" />
      <path class="cls-1"
        d="M98.65,159.31c14.72,0,26.7,11.98,26.7,26.7s-11.98,26.7-26.7,26.7-26.7-11.98-26.7-26.7,11.98-26.7,26.7-26.7M98.65,156.31c-16.4,0-29.7,13.3-29.7,29.7s13.3,29.7,29.7,29.7,29.7-13.3,29.7-29.7-13.3-29.7-29.7-29.7h0Z" />
      <g>
        <path class="cls-4" d="M126.64,185.95c0,14.6-12.45,26.43-27.8,26.43s-27.8-11.83-27.8-26.43" />
        <path class="cls-4" d="M117.15,185.95c0,9.61-8.2,17.41-18.31,17.41s-18.31-7.79-18.31-17.41" />
        <path class="cls-4" d="M107.65,185.95c0,4.63-3.94,8.38-8.81,8.38s-8.81-3.75-8.81-8.38" />
        <path class="cls-4" d="M80.53,186c0-12.11,10.32-21.92,23.05-21.92s23.05,9.81,23.05,21.92" />
        <path class="cls-4" d="M90.03,186c0-7.12,6.07-12.89,13.56-12.89s13.56,5.77,13.56,12.89" />
        <path class="cls-4" d="M99.52,186c0-2.13,1.82-3.86,4.06-3.86s4.06,1.73,4.06,3.86" />
      </g>
      <animateTransform
        attributeName="transform"
        type="rotate"
        from="0 100 190"
        to="360 100 185"
        dur="1s"
        repeatCount="indefinite" />
    </g>

    <!-- OLHO DIREITO -->
    <g>
      <path class="cls-3"
        d="M201.37,216.24c-15.55,0-28.2-12.65-28.2-28.2s12.65-28.2,28.2-28.2,28.2,12.65,28.2,28.2-12.65,28.2-28.2,28.2Z" />
      <path class="cls-1"
        d="M201.37,161.34c14.72,0,26.7,11.98,26.7,26.7s-11.98,26.7-26.7,26.7-26.7-11.98-26.7-26.7,11.98-26.7,26.7-26.7M201.37,158.34c-16.4,0-29.7,13.3-29.7,29.7s13.3,29.7,29.7,29.7,29.7-13.3,29.7-29.7-13.3-29.7-29.7-29.7h0Z" />
      <g>
        <path class="cls-4" d="M229.06,188.08c0,14.6-12.45,26.43-27.8,26.43s-27.8-11.83-27.8-26.43" />
        <path class="cls-4" d="M219.57,188.08c0,9.61-8.2,17.41-18.31,17.41s-18.31-7.79-18.31-17.41" />
        <path class="cls-4" d="M210.07,188.08c0,4.63-3.94,8.38-8.81,8.38s-8.81-3.75-8.81-8.38" />
        <path class="cls-4"
          d="M182.95,188.13c0-12.11,10.32-21.92,23.05-21.92s23.05,9.81,23.05,21.92" />
        <path class="cls-4" d="M192.45,188.13c0-7.12,6.07-12.89,13.56-12.89s13.56,5.77,13.56,12.89" />
        <path class="cls-4" d="M201.94,188.13c0-2.13,1.82-3.86,4.06-3.86s4.06,1.73,4.06,3.86" />
      </g>
      <animateTransform
        attributeName="transform"
        type="rotate"
        from="0 200 185"
        to="-360 200 185"
        dur="1s"
        repeatCount="indefinite" />
    </g>

    <!-- BOCA -->
    <path class="cls-6"
      d="M116.15,295.51c6.43,0,6.43,4,12.86,4s6.43-4,12.87-4,6.43,4,12.86,4,6.44-4,12.87-4,6.44,4,12.87,4">
      <!-- <animateTransform
        attributeName="transform"
        type="scale"
        from="1 1"
        to="1 -1"
        begin="0s"
        dur="1s"
        repeatCount="indefinite"
        additive="sum"
      />
      <animateTransform
        attributeName="transform"
        type="translate"
        begin="0s"
        dur="1s"
        from="0 -50"
        to="0 50"
        repeatCount="indefinite"
        additive="sum" /> -->
    </path>
  </g>
</svg>